<svg width="73" height="73" viewBox="0 0 73 73" fill="none" xmlns="http://www.w3.org/2000/svg">
<path d="M69.35 36.5C69.3616 44.7438 66.2619 52.6884 60.6703 58.746H42.778V59.2351H31.3783V58.746H12.3297C6.73814 52.6884 3.63842 44.7438 3.65 36.5C3.65 18.358 18.358 3.64999 36.5 3.64999C54.642 3.64999 69.35 18.358 69.35 36.5Z" fill="url(#paint0_linear_1_1196)"/>
<path d="M60.6703 58.746C59.2906 60.2428 57.7755 61.6089 56.1443 62.8267H16.8499C15.2187 61.6089 13.7036 60.2428 12.3239 58.746H20.4415L22.3395 59.0935L23.6958 58.7869V58.7446H28.4277L28.4204 59.841H31.4148V59.2337H42.778V58.7446H42.816V59.841H45.406V58.7446H50.005V58.7942L51.5935 59.0935H51.6241L53.5805 58.7504L60.6703 58.746Z" fill="url(#paint1_linear_1_1196)"/>
<path d="M23.6958 58.746V58.7884L22.3395 59.095V59.0935L20.4473 58.746H23.6958Z" fill="url(#paint2_linear_1_1196)"/>
<path d="M31.3783 59.2351H31.4148V59.8425H28.4204L28.4277 58.746H31.3783V59.2351Z" fill="url(#paint3_linear_1_1196)"/>
<path d="M45.4002 58.746H42.8174V59.8425H45.4002V58.746Z" fill="url(#paint4_linear_1_1196)"/>
<path d="M53.5805 58.746L51.6241 59.0891L51.5935 59.095L50.005 58.7957V58.746H53.5805Z" fill="url(#paint5_linear_1_1196)"/>
<path d="M42.7795 58.746H31.3783V59.2351H42.7795V58.746Z" fill="url(#paint6_linear_1_1196)"/>
<path d="M56.1136 62.8545C55.0019 63.6811 53.8388 64.4365 52.6315 65.116H20.3655C19.1581 64.4346 17.995 63.6773 16.8834 62.8486L56.1136 62.8545Z" fill="url(#paint7_linear_1_1196)"/>
<path d="M52.56 65.1598C51.1141 65.9724 49.6083 66.6738 48.0559 67.2578H24.9383C23.3878 66.6735 21.8841 65.9722 20.44 65.1598H52.56Z" fill="url(#paint8_linear_1_1196)"/>
<path d="M48.0617 67.2578C40.6062 70.0471 32.3938 70.0471 24.9383 67.2578H48.0617Z" fill="url(#paint9_linear_1_1196)"/>
<path d="M42.7795 55.5194H31.3783V59.2351H42.7795V55.5194Z" fill="url(#paint10_linear_1_1196)"/>
<path d="M50.1773 31.3418C49.4166 32.0032 47.123 32.6558 46.0134 32.9347V31.5097H46.5638V30.4877L50.1773 31.3418Z" fill="url(#paint11_linear_1_1196)"/>
<path d="M24.5163 31.7258C25.2755 32.3872 27.5692 33.0398 28.6788 33.3201V31.8937H28.1284V30.879L24.5163 31.7258Z" fill="url(#paint12_linear_1_1196)"/>
<path d="M54.7047 23.9703V27.4305L44.9768 25.4624H29.8088L20.1933 27.3502V23.652C20.1947 23.2711 20.3055 22.8987 20.5126 22.579C20.7197 22.2593 21.0142 22.0059 21.3613 21.8489C21.5262 21.773 21.6927 21.7029 21.8606 21.6241C22.0285 21.5452 22.1759 21.4781 22.3365 21.4167L22.3628 21.4065C22.5307 21.335 22.7001 21.2605 22.8694 21.1948C22.9921 21.1437 23.1162 21.0926 23.2388 21.0488C23.4257 20.9744 23.6155 20.9028 23.8038 20.8313C23.9279 20.7831 24.052 20.7378 24.1747 20.6926L24.547 20.5583C24.8492 20.4517 25.1529 20.3495 25.4595 20.2487C25.658 20.1845 25.8566 20.1217 26.0581 20.0604C26.1545 19.9151 26.2588 19.7753 26.3705 19.6414L26.4099 19.5947C26.461 19.5348 26.5136 19.4779 26.5662 19.4209C26.6187 19.364 26.6727 19.3114 26.7282 19.2589C26.7837 19.2063 26.8421 19.1508 26.9005 19.0983L26.9297 19.0734C26.9896 19.0223 27.0509 18.9712 27.1137 18.9274H27.1253C27.1852 18.8793 27.248 18.8325 27.3137 18.7887C27.3316 18.7741 27.3506 18.7609 27.3706 18.7493C27.4261 18.7084 27.4845 18.6719 27.5414 18.6369L27.5619 18.6252C27.6276 18.5829 27.6977 18.5435 27.7677 18.504C27.8378 18.4646 27.8962 18.434 27.9634 18.4033C28.1342 18.3197 28.3097 18.2461 28.489 18.1828C28.5868 18.0179 28.689 17.8573 28.7956 17.6981C28.7956 17.6981 28.7956 17.6981 28.7956 17.6894C28.8452 17.6134 28.8978 17.5434 28.9416 17.466C28.9854 17.3886 29.0598 17.3025 29.1212 17.2222C29.1825 17.1419 29.2336 17.0762 29.2905 17.0061C29.3869 16.8864 29.4876 16.7666 29.5825 16.6498C29.6219 16.6046 29.6628 16.5608 29.7037 16.5155C29.7446 16.4703 29.8001 16.4104 29.8497 16.3608C30.7853 15.3799 31.9102 14.599 33.1563 14.0655C34.4024 13.532 35.7438 13.257 37.0993 13.257C38.4548 13.257 39.7963 13.532 41.0424 14.0655C42.2885 14.599 43.4134 15.3799 44.349 16.3608C44.4351 16.4498 44.5183 16.5418 44.5986 16.6338C44.6139 16.6487 44.6281 16.6648 44.641 16.682C44.6921 16.7374 44.7402 16.7944 44.787 16.8528C44.8337 16.9112 44.8556 16.9345 44.8906 16.9783C44.9607 17.0645 45.0366 17.1521 45.0965 17.2411L45.1111 17.2601C45.1753 17.3448 45.2366 17.4295 45.295 17.5156C45.3082 17.5317 45.3199 17.5492 45.3315 17.5667C45.4513 17.7375 45.5666 17.9142 45.6746 18.0938C45.8545 18.1458 46.031 18.2087 46.2032 18.2821C46.3185 18.3318 46.4338 18.3858 46.5433 18.4427C46.581 18.4599 46.6176 18.4794 46.6528 18.5011C46.8569 18.6115 47.0521 18.7375 47.2368 18.8778C47.2909 18.9201 47.3449 18.9639 47.4004 19.0048C47.4558 19.0457 47.5215 19.1099 47.5814 19.1625C47.6413 19.2151 47.6792 19.2545 47.7274 19.3085C47.8303 19.4088 47.9278 19.5146 48.0194 19.6253C48.0442 19.6531 48.0676 19.6823 48.0895 19.71C48.2042 19.8496 48.3104 19.9958 48.4078 20.148C48.6122 20.2122 48.8136 20.2779 49.0166 20.3451C49.2195 20.4123 49.4079 20.478 49.6006 20.5466C49.7933 20.6152 49.9846 20.6824 50.1773 20.7539H50.189C50.5729 20.8999 50.954 21.0459 51.3336 21.1919L51.9001 21.4299L52.395 21.6445L52.4651 21.6766C52.6476 21.7584 52.8316 21.8416 53.0126 21.9263C53.1936 22.011 53.3688 22.0942 53.5455 22.1803L53.6097 22.2124C53.9375 22.3749 54.2135 22.6253 54.4069 22.9358C54.6003 23.2463 54.7035 23.6045 54.7047 23.9703Z" fill="url(#paint13_linear_1_1196)"/>
<path d="M54.7047 27.4305L44.9768 25.4624H29.8103L20.1933 27.3502L18.8194 27.6188V28.762L19.9305 29.8497V58.6555L20.4473 58.7504L22.3453 59.0979V36.6212H22.9775V34.9685H23.6403L23.9323 32.977L23.836 31.4469V31.4177L23.8768 31.4382L24.0696 31.536L24.2156 31.6105L24.2725 31.6382L24.6039 31.7988C24.7996 31.8937 25.0229 31.9988 25.2638 32.1083L25.4478 32.1915C25.7894 32.3463 26.1574 32.5054 26.5224 32.6514L26.7209 32.7303C26.8202 32.7697 26.9195 32.8062 27.0129 32.8427H27.0231L27.1107 32.8748L27.1648 32.8938L27.302 32.942L27.3954 32.9741C27.6619 33.066 27.934 33.1407 28.2101 33.1975C28.2583 33.2077 28.305 33.215 28.3488 33.2223C28.4223 33.2336 28.4964 33.2404 28.5707 33.2427V34.6838L28.4247 58.746L28.4174 59.8425H31.4119V29.8366H42.8145V59.8425H45.406V33.0851C45.406 33.0851 45.644 33.031 46.0177 32.9391V31.5141H46.5682V30.4921L50.1802 31.3404L50.116 32.9113L50.3043 33.9859L50.4634 34.8998H51.1934V36.5496H51.6314V59.0891L53.5878 58.746L54.2872 58.6234V29.9986L55.6479 28.9883V27.6188L54.7047 27.4305ZM21.7087 28.1838L22.0635 30.1359L20.878 30.33L20.5188 28.47L21.7087 28.1838ZM22.9921 34.1436H22.1482V35.57H20.513V32.066L23.287 31.4192C23.287 31.4192 23.4023 33.0427 22.9979 34.1436H22.9921ZM22.5103 30.0556L22.1292 28.0758L23.3571 27.7838L23.7133 29.8643L22.5103 30.0556ZM29.4117 26.3165V28.9284L28.2189 29.1255L27.8115 26.718L29.4117 26.3165ZM27.2757 26.8319L27.7488 29.2015L26.1982 29.4555L25.7602 27.1983L27.2757 26.8319ZM23.8257 27.6641L25.22 27.3283L25.6507 29.5446L24.271 29.784L23.8257 27.6641ZM31.628 28.9197H30.076V26.3209H31.6397L31.628 28.9197ZM33.7231 28.9197H32.1638V26.3209H33.726L33.7231 28.9197ZM35.8182 28.9197H34.2604V26.3209H35.824L35.8182 28.9197ZM38.0009 28.9197H36.4431V26.3209H38.0067L38.0009 28.9197ZM40.096 28.9197H38.544V26.3209H40.1077L40.096 28.9197ZM42.2787 28.9197H40.7209V26.3209H42.2845L42.2787 28.9197ZM42.8116 26.3209H44.384V28.9197H42.8174L42.8116 26.3209ZM46.155 29.1285L44.968 28.9401V26.3282L46.574 26.718L46.155 29.1285ZM48.18 29.4657L46.6295 29.2131L47.1025 26.8421L48.618 27.21L48.18 29.4657ZM50.113 29.784L48.726 29.5592L49.1567 27.3443L50.551 27.6801L50.113 29.784ZM51.0212 27.794L52.249 28.086L51.868 30.0658L50.662 29.8701L51.0212 27.794ZM53.6842 35.5495H52.0475V34.1217H51.208C51.1083 33.8372 51.036 33.5439 50.992 33.2457C50.9044 32.6312 50.8766 32.0098 50.9087 31.39L53.6827 32.0339L53.6842 35.5495ZM53.5002 30.3388L52.3133 30.1446L52.6695 28.1926L53.8638 28.4846L53.5002 30.3388Z" fill="url(#paint14_linear_1_1196)"/>
<path d="M51.6241 36.5511V59.0891L51.5935 59.095L50.005 58.7957V58.746L50.1364 38.3878L49.7247 38.4009V36.9511H49.0239V35.0634H48.4253L48.1245 33.8267L50.1116 32.9142L50.3014 33.9873L50.462 34.9013H51.1861V36.5511H51.6241Z" fill="url(#paint15_linear_1_1196)"/>
<path d="M51.6241 59.0953V59.0891" stroke="#27AAE1" stroke-width="0.9" stroke-miterlimit="10"/>
<path d="M25.9004 33.9231L25.5748 35.2196H24.9149V37.0417H24.1338L24.1703 38.5075H23.6958V58.7884L22.3395 59.095V36.6212H22.9716V34.9699H23.633V34.9685L23.9294 32.977L25.9004 33.9231Z" fill="url(#paint16_linear_1_1196)"/>
<path d="M28.5751 33.2442V34.6823L25.9004 33.9231L23.9294 32.977L23.8316 31.4163C23.8316 31.4163 27.321 33.2062 28.5751 33.2442Z" fill="url(#paint17_linear_1_1196)"/>
<path d="M50.1773 31.3404L50.1116 32.9142L48.1245 33.8267L45.406 34.5436V33.0836C45.406 33.0836 45.644 33.0296 46.0177 32.9376C47.123 32.65 49.4166 32.0032 50.1773 31.3404Z" fill="url(#paint18_linear_1_1196)"/>
<path opacity="0.72" d="M33.6311 34.3874V38.709L33.18 39.3032V55.6873H31.4163V34.3874H33.6311Z" fill="url(#paint19_linear_1_1196)"/>
<path d="M42.816 32.9507V34.3947H40.5442V34.894H33.6311V34.3874H31.4163V32.9507H42.816Z" fill="url(#paint20_linear_1_1196)"/>
<path opacity="0.72" d="M42.816 34.3947V55.6873H40.9968V39.3032L40.5442 38.709V34.3947H42.816Z" fill="url(#paint21_linear_1_1196)"/>
<path d="M22.5161 30.0648V30.0629" stroke="#27AAE1" stroke-width="0.9" stroke-miterlimit="10"/>
<path d="M24.271 29.7786V29.7767" stroke="#27AAE1" stroke-width="0.9" stroke-miterlimit="10"/>
<path d="M23.8316 31.4455C24.7251 32.2237 27.4232 32.9858 28.7284 33.3201V31.644H28.0802V30.4483L23.8316 31.4455Z" fill="url(#paint22_linear_1_1196)"/>
<path d="M42.816 29.8366H31.4148V32.9507H42.816V29.8366Z" fill="url(#paint23_linear_1_1196)"/>
<defs>
<linearGradient id="paint0_linear_1_1196" x1="36.6168" y1="2.72873" x2="36.3628" y2="76.3113" gradientUnits="userSpaceOnUse">
<stop stop-color="#141E30"/>
<stop offset="1" stop-color="#243B55"/>
</linearGradient>
<linearGradient id="paint1_linear_1_1196" x1="36.3832" y1="55.4902" x2="36.6372" y2="62.5858" gradientUnits="userSpaceOnUse">
<stop stop-color="white"/>
<stop offset="1" stop-color="#EAD9A7"/>
</linearGradient>
<linearGradient id="paint2_linear_1_1196" x1="22.0708" y1="58.746" x2="22.0708" y2="59.095" gradientUnits="userSpaceOnUse">
<stop stop-color="white"/>
<stop offset="1" stop-color="#EAD9A7"/>
</linearGradient>
<linearGradient id="paint3_linear_1_1196" x1="29.9169" y1="58.746" x2="29.9169" y2="59.8425" gradientUnits="userSpaceOnUse">
<stop stop-color="white"/>
<stop offset="1" stop-color="#EAD9A7"/>
</linearGradient>
<linearGradient id="paint4_linear_1_1196" x1="44.1095" y1="58.746" x2="44.1095" y2="59.8425" gradientUnits="userSpaceOnUse">
<stop stop-color="white"/>
<stop offset="1" stop-color="#EAD9A7"/>
</linearGradient>
<linearGradient id="paint5_linear_1_1196" x1="51.792" y1="58.746" x2="51.792" y2="59.095" gradientUnits="userSpaceOnUse">
<stop stop-color="white"/>
<stop offset="1" stop-color="#EAD9A7"/>
</linearGradient>
<linearGradient id="paint6_linear_1_1196" x1="37.0782" y1="58.4307" x2="37.0782" y2="59.1928" gradientUnits="userSpaceOnUse">
<stop stop-color="white"/>
<stop offset="1" stop-color="#EAD9A7"/>
</linearGradient>
<linearGradient id="paint7_linear_1_1196" x1="36.5" y1="61.2178" x2="36.5" y2="64.9685" gradientUnits="userSpaceOnUse">
<stop stop-color="white"/>
<stop offset="1" stop-color="#EAD9A7"/>
</linearGradient>
<linearGradient id="paint8_linear_1_1196" x1="36.5482" y1="63.5801" x2="36.4474" y2="66.8753" gradientUnits="userSpaceOnUse">
<stop stop-color="white"/>
<stop offset="1" stop-color="#EAD9A7"/>
</linearGradient>
<linearGradient id="paint9_linear_1_1196" x1="36.5" y1="65.8299" x2="36.5" y2="69.4799" gradientUnits="userSpaceOnUse">
<stop stop-color="white"/>
<stop offset="1" stop-color="#EAD9A7"/>
</linearGradient>
<linearGradient id="paint10_linear_1_1196" x1="37.0782" y1="53.1279" x2="37.0782" y2="58.9168" gradientUnits="userSpaceOnUse">
<stop stop-color="white"/>
<stop offset="1" stop-color="#EAD9A7"/>
</linearGradient>
<linearGradient id="paint11_linear_1_1196" x1="45.1768" y1="30.1023" x2="48.4647" y2="32.396" gradientUnits="userSpaceOnUse">
<stop stop-color="white"/>
<stop offset="1" stop-color="#EAD9A7"/>
</linearGradient>
<linearGradient id="paint12_linear_1_1196" x1="26.3399" y1="33.1245" x2="27.0085" y2="31.5637" gradientUnits="userSpaceOnUse">
<stop stop-color="white"/>
<stop offset="1" stop-color="#FFEFBA"/>
</linearGradient>
<linearGradient id="paint13_linear_1_1196" x1="41.1311" y1="14.3985" x2="34.9524" y2="32.8296" gradientUnits="userSpaceOnUse">
<stop stop-color="white"/>
<stop offset="1" stop-color="#FFEFBA"/>
</linearGradient>
<linearGradient id="paint14_linear_1_1196" x1="37.3088" y1="24.1338" x2="36.627" y2="60.1783" gradientUnits="userSpaceOnUse">
<stop stop-color="#F9EECF"/>
<stop offset="1" stop-color="#EAD9A7"/>
</linearGradient>
<linearGradient id="paint15_linear_1_1196" x1="40.5165" y1="43.381" x2="46.8324" y2="45.0191" gradientUnits="userSpaceOnUse">
<stop stop-color="white"/>
<stop offset="1" stop-color="#EAD9A7"/>
</linearGradient>
<linearGradient id="paint16_linear_1_1196" x1="29.9694" y1="32.6106" x2="28.4101" y2="35.9642" gradientUnits="userSpaceOnUse">
<stop stop-color="white"/>
<stop offset="1" stop-color="#EAD9A7"/>
</linearGradient>
<linearGradient id="paint17_linear_1_1196" x1="26.3442" y1="36.2752" x2="26.2128" y2="32.5697" gradientUnits="userSpaceOnUse">
<stop stop-color="white"/>
<stop offset="1" stop-color="#EAD9A7"/>
</linearGradient>
<linearGradient id="paint18_linear_1_1196" x1="47.4558" y1="31.793" x2="47.9829" y2="33.6107" gradientUnits="userSpaceOnUse">
<stop stop-color="white"/>
<stop offset="1" stop-color="#EAD9A7"/>
</linearGradient>
<linearGradient id="paint19_linear_1_1196" x1="39.3762" y1="43.4292" x2="32.4646" y2="45.0001" gradientUnits="userSpaceOnUse">
<stop stop-color="white" stop-opacity="0.72"/>
<stop offset="1" stop-color="#FFEFBA"/>
</linearGradient>
<linearGradient id="paint20_linear_1_1196" x1="37.1161" y1="30.8367" x2="37.1161" y2="34.145" gradientUnits="userSpaceOnUse">
<stop stop-color="white"/>
<stop offset="1" stop-color="#EAD9A7"/>
</linearGradient>
<linearGradient id="paint21_linear_1_1196" x1="40.5442" y1="45.041" x2="42.816" y2="45.041" gradientUnits="userSpaceOnUse">
<stop stop-color="white" stop-opacity="0.72"/>
<stop offset="1" stop-color="#FFEFBA"/>
</linearGradient>
<linearGradient id="paint22_linear_1_1196" x1="29.165" y1="28.9138" x2="26.3355" y2="32.3171" gradientUnits="userSpaceOnUse">
<stop stop-color="white"/>
<stop offset="1" stop-color="#EAD9A7"/>
</linearGradient>
<linearGradient id="paint23_linear_1_1196" x1="37.341" y1="28.0335" x2="37.0344" y2="32.6208" gradientUnits="userSpaceOnUse">
<stop stop-color="white"/>
<stop offset="1" stop-color="#EAD9A7"/>
</linearGradient>
</defs>
</svg>
